<?xml version="1.0" encoding="UTF-8" standalone="no"?>
<!-- Created with Inkscape (http://www.inkscape.org/) -->

<svg
   width="117.53242mm"
   height="94.072662mm"
   viewBox="0 0 117.53241 94.072663"
   version="1.1"
   id="svg1"
   xml:space="preserve"
   xmlns="http://www.w3.org/2000/svg"
   xmlns:svg="http://www.w3.org/2000/svg"><defs
     id="defs1" /><g
     id="layer1"
     transform="translate(-53.420534,-147.38654)"><g
       style="display:none;fill:#7b5aac;fill-opacity:1"
       id="g2"
       transform="matrix(0.10158754,-0.01747866,0.01747866,0.10158754,52.506073,238.32462)"><path
         d="M 964.77578,-582.77741 83.574298,-183.13235 872.65561,-47.366817 Z"
         style="display:inline;fill:#ac8dd8;fill-opacity:1;stroke-width:1.28757"
         id="path7"
         transform="matrix(1.3222802,-4.2595775e-8,4.2595775e-8,1.3222802,-26.616231,287.44237)" /><path
         d="m 323.02282,-652.24761 80,160 h 120 l -80,-160 h 80 l 80,160 h 120 l -80,-160 h 80 l 80,160 h 120 l -80,-160 h 120 q 33,0 56.49998,23.5 23.5,23.5 23.5,56.5 v 480.000004 q 0,33.000011 -23.5,56.500011 -23.49998,23.5 -56.49998,23.5 h -640 q -33,0 -56.5,-23.5 -23.5,-23.5 -23.5,-56.500011 V -572.24761 q 0,-33 23.5,-56.5 23.5,-23.5 56.5,-23.5 z m 0,240 v 320.000004 h 640 V -412.24761 Z m 0,0 v 320.000004 z"
         id="path1"
         style="fill:#7b5aac;fill-opacity:1" /></g><g
       style="display:none;fill:#d35f5f"
       id="g3"
       transform="matrix(0.10806423,0,0,0.10806423,70.488925,244.87932)"><path
         d="M 964.77578,-582.77741 83.574298,-183.13235 872.65561,-47.366817 Z"
         style="display:inline;fill:#da7a7a;fill-opacity:1;stroke-width:1.28757"
         id="path6"
         transform="matrix(1.243031,-0.21386994,0.21386994,1.243031,-144.93808,213.86429)" /><path
         d="m 302.59567,-106.55117 q -44.34837,7.63037 -91.44162,-6.59025 -47.09324,-14.22062 -79.80656,-45.12109 25.6235,-4.40866 48.75647,-29.19002 23.13296,-24.78137 16.51998,-63.21662 -8.47819,-49.27596 20.08026,-89.70386 28.55844,-40.4279 77.8344,-48.90609 49.27596,-8.47818 89.70387,20.08026 40.4279,28.55845 48.90608,77.83441 11.19121,65.04427 -27.1587,119.33316 -38.34991,54.2889 -103.39418,65.4801 z m -13.5651,-78.84153 q 32.52214,-5.59561 51.69709,-32.74005 19.17496,-27.14445 13.57935,-59.66659 -2.88258,-16.75382 -16.16603,-26.13731 -13.28346,-9.38349 -30.03728,-6.50091 -16.75383,2.88258 -26.13732,16.16604 -9.38349,13.28345 -6.5009,30.03728 3.89996,22.66694 1.70132,42.32441 -2.19865,19.65746 -8.18574,37.93736 5.26672,1.12322 10.19432,0.2754 z M 488.5698,-382.07543 361.51068,-471.83054 653.62277,-885.35022 q 8.97551,-12.70592 25.15179,-15.99648 16.17629,-3.29056 30.03728,6.50091 l 62.37448,44.0616 q 13.861,9.79146 16.57402,25.55977 2.71302,15.76831 -7.07845,29.62931 z m -173.68355,111.05864 z"
         id="path1-1"
         style="display:inline;fill:#c04646;fill-opacity:1"
         transform="translate(-1.0603262e-6)" /></g><g
       style="display:inline;fill:#5f6368"
       id="g4"
       transform="matrix(0.13432719,-0.02311169,0.02311169,0.13432719,54.826303,267.9904)"><path
         d="M 964.77578,-582.77741 83.574298,-183.13235 872.65561,-47.366817 Z"
         style="fill:#7598cd;fill-opacity:1;stroke-width:1.28757"
         id="path5" /><path
         d="m 307.08136,-210.70764 -240.000034,-240 240.000034,-240 57,57 -184,184 183,183 z m 320,0 -57,-57 184,-184 -183,-183 56,-56 240,240 z"
         id="path1-5"
         style="display:inline;fill:#4c6ea3;fill-opacity:1" /></g></g></svg>
